<mxfile host="app.diagrams.net" modified="2024-04-27T00:33:33.399Z" agent="Mozilla/5.0 (X11; Linux x86_64; rv:125.0) Gecko/20100101 Firefox/125.0" etag="QkA3fuJkda9sNRmUtsBG" version="24.2.3" type="google">
  <diagram name="Page-1" id="83sMgPvW2iVW_t99ktEH">
    <mxGraphModel grid="0" page="0" gridSize="10" guides="1" tooltips="1" connect="1" arrows="1" fold="1" pageScale="1" pageWidth="850" pageHeight="1100" math="0" shadow="0">
      <root>
        <mxCell id="0" />
        <mxCell id="1" parent="0" />
        <mxCell id="ZKnrM1Vrkn3Mo8lUjv3E-1" value="region us-east-1" style="shape=mxgraph.ibm.box;prType=region;fontStyle=0;verticalAlign=top;align=left;spacingLeft=32;spacingTop=4;fillColor=none;rounded=0;whiteSpace=wrap;html=1;strokeColor=#919191;strokeWidth=2;dashed=0;container=1;spacing=-4;collapsible=0;expand=0;recursiveResize=0;" vertex="1" parent="1">
          <mxGeometry x="-546" y="-219" width="1480" height="1164" as="geometry" />
        </mxCell>
        <mxCell id="ZKnrM1Vrkn3Mo8lUjv3E-17" value="VPC" style="sketch=0;outlineConnect=0;gradientColor=none;html=1;whiteSpace=wrap;fontSize=12;fontStyle=0;shape=mxgraph.aws4.group;grIcon=mxgraph.aws4.group_vpc;strokeColor=#879196;fillColor=none;verticalAlign=top;align=left;spacingLeft=30;fontColor=#879196;dashed=0;" vertex="1" parent="ZKnrM1Vrkn3Mo8lUjv3E-1">
          <mxGeometry x="131" y="47" width="1271" height="1065" as="geometry" />
        </mxCell>
        <mxCell id="ZKnrM1Vrkn3Mo8lUjv3E-20" value="Availability zone" style="sketch=0;outlineConnect=0;gradientColor=none;html=1;whiteSpace=wrap;fontSize=12;fontStyle=0;shape=mxgraph.aws4.group;grIcon=mxgraph.aws4.group_availability_zone;strokeColor=#545B64;fillColor=none;verticalAlign=top;align=left;spacingLeft=30;fontColor=#545B64;dashed=1;" vertex="1" parent="ZKnrM1Vrkn3Mo8lUjv3E-1">
          <mxGeometry x="161" y="82" width="1210" height="988" as="geometry" />
        </mxCell>
        <mxCell id="ZKnrM1Vrkn3Mo8lUjv3E-18" value="private subnet" style="sketch=0;outlineConnect=0;gradientColor=none;html=1;whiteSpace=wrap;fontSize=12;fontStyle=0;shape=mxgraph.aws4.group;grIcon=mxgraph.aws4.group_subnet;strokeColor=#879196;fillColor=none;verticalAlign=top;align=left;spacingLeft=30;fontColor=#879196;dashed=0;" vertex="1" parent="ZKnrM1Vrkn3Mo8lUjv3E-1">
          <mxGeometry x="195" y="127" width="809" height="911" as="geometry" />
        </mxCell>
        <mxCell id="ZKnrM1Vrkn3Mo8lUjv3E-21" value="public subnet" style="sketch=0;outlineConnect=0;gradientColor=none;html=1;whiteSpace=wrap;fontSize=12;fontStyle=0;shape=mxgraph.aws4.group;grIcon=mxgraph.aws4.group_subnet;strokeColor=#879196;fillColor=none;verticalAlign=top;align=left;spacingLeft=30;fontColor=#879196;dashed=0;" vertex="1" parent="ZKnrM1Vrkn3Mo8lUjv3E-1">
          <mxGeometry x="1039" y="104" width="302" height="573" as="geometry" />
        </mxCell>
        <mxCell id="ZKnrM1Vrkn3Mo8lUjv3E-27" style="edgeStyle=orthogonalEdgeStyle;rounded=0;orthogonalLoop=1;jettySize=auto;html=1;" edge="1" parent="ZKnrM1Vrkn3Mo8lUjv3E-1" source="ZKnrM1Vrkn3Mo8lUjv3E-6" target="ZKnrM1Vrkn3Mo8lUjv3E-24">
          <mxGeometry relative="1" as="geometry" />
        </mxCell>
        <mxCell id="ZKnrM1Vrkn3Mo8lUjv3E-6" value="Amazon API Gateway" style="sketch=0;outlineConnect=0;fontColor=#232F3E;gradientColor=none;strokeColor=#ffffff;fillColor=#232F3E;dashed=0;verticalLabelPosition=middle;verticalAlign=bottom;align=center;html=1;whiteSpace=wrap;fontSize=10;fontStyle=1;spacing=3;shape=mxgraph.aws4.productIcon;prIcon=mxgraph.aws4.api_gateway;" vertex="1" parent="ZKnrM1Vrkn3Mo8lUjv3E-1">
          <mxGeometry x="29" y="254" width="67" height="115" as="geometry" />
        </mxCell>
        <mxCell id="ZKnrM1Vrkn3Mo8lUjv3E-11" value="PAYMENT-ACL" style="rounded=1;whiteSpace=wrap;html=1;" vertex="1" parent="ZKnrM1Vrkn3Mo8lUjv3E-1">
          <mxGeometry x="546" y="955" width="126" height="60" as="geometry" />
        </mxCell>
        <mxCell id="ZKnrM1Vrkn3Mo8lUjv3E-2" value="PRODESP-ACL" style="rounded=1;whiteSpace=wrap;html=1;" vertex="1" parent="ZKnrM1Vrkn3Mo8lUjv3E-1">
          <mxGeometry x="342" y="178" width="126" height="60" as="geometry" />
        </mxCell>
        <mxCell id="ZKnrM1Vrkn3Mo8lUjv3E-26" style="edgeStyle=orthogonalEdgeStyle;rounded=0;orthogonalLoop=1;jettySize=auto;html=1;entryX=0.5;entryY=1;entryDx=0;entryDy=0;" edge="1" parent="ZKnrM1Vrkn3Mo8lUjv3E-1" source="ZKnrM1Vrkn3Mo8lUjv3E-24" target="ZKnrM1Vrkn3Mo8lUjv3E-2">
          <mxGeometry relative="1" as="geometry" />
        </mxCell>
        <mxCell id="ZKnrM1Vrkn3Mo8lUjv3E-95" value="GET" style="edgeLabel;html=1;align=center;verticalAlign=middle;resizable=0;points=[];" connectable="0" vertex="1" parent="ZKnrM1Vrkn3Mo8lUjv3E-26">
          <mxGeometry x="-0.0118" relative="1" as="geometry">
            <mxPoint as="offset" />
          </mxGeometry>
        </mxCell>
        <mxCell id="ZKnrM1Vrkn3Mo8lUjv3E-29" style="edgeStyle=orthogonalEdgeStyle;rounded=0;orthogonalLoop=1;jettySize=auto;html=1;" edge="1" parent="ZKnrM1Vrkn3Mo8lUjv3E-1" source="ZKnrM1Vrkn3Mo8lUjv3E-24" target="ZKnrM1Vrkn3Mo8lUjv3E-28">
          <mxGeometry relative="1" as="geometry">
            <Array as="points">
              <mxPoint x="298" y="445" />
            </Array>
          </mxGeometry>
        </mxCell>
        <mxCell id="ZKnrM1Vrkn3Mo8lUjv3E-45" value="PRODUCE" style="edgeLabel;html=1;align=center;verticalAlign=middle;resizable=0;points=[];" connectable="0" vertex="1" parent="ZKnrM1Vrkn3Mo8lUjv3E-29">
          <mxGeometry x="-0.4" y="-2" relative="1" as="geometry">
            <mxPoint as="offset" />
          </mxGeometry>
        </mxCell>
        <mxCell id="ZKnrM1Vrkn3Mo8lUjv3E-47" style="edgeStyle=orthogonalEdgeStyle;rounded=0;orthogonalLoop=1;jettySize=auto;html=1;" edge="1" parent="ZKnrM1Vrkn3Mo8lUjv3E-1" source="ZKnrM1Vrkn3Mo8lUjv3E-24" target="ZKnrM1Vrkn3Mo8lUjv3E-46">
          <mxGeometry relative="1" as="geometry">
            <Array as="points">
              <mxPoint x="318" y="430" />
            </Array>
          </mxGeometry>
        </mxCell>
        <mxCell id="ZKnrM1Vrkn3Mo8lUjv3E-49" value="SQL QUERY" style="edgeLabel;html=1;align=center;verticalAlign=middle;resizable=0;points=[];" connectable="0" vertex="1" parent="ZKnrM1Vrkn3Mo8lUjv3E-47">
          <mxGeometry x="0.4344" y="-3" relative="1" as="geometry">
            <mxPoint x="-4" y="-5" as="offset" />
          </mxGeometry>
        </mxCell>
        <mxCell id="ZKnrM1Vrkn3Mo8lUjv3E-62" style="edgeStyle=orthogonalEdgeStyle;rounded=0;orthogonalLoop=1;jettySize=auto;html=1;" edge="1" parent="ZKnrM1Vrkn3Mo8lUjv3E-1" source="ZKnrM1Vrkn3Mo8lUjv3E-24" target="ZKnrM1Vrkn3Mo8lUjv3E-48">
          <mxGeometry relative="1" as="geometry" />
        </mxCell>
        <mxCell id="ZKnrM1Vrkn3Mo8lUjv3E-94" value="PRODUCE" style="edgeLabel;html=1;align=center;verticalAlign=middle;resizable=0;points=[];" connectable="0" vertex="1" parent="ZKnrM1Vrkn3Mo8lUjv3E-62">
          <mxGeometry x="0.059" y="2" relative="1" as="geometry">
            <mxPoint as="offset" />
          </mxGeometry>
        </mxCell>
        <mxCell id="ZKnrM1Vrkn3Mo8lUjv3E-24" value="TAX-API" style="rounded=1;whiteSpace=wrap;html=1;" vertex="1" parent="ZKnrM1Vrkn3Mo8lUjv3E-1">
          <mxGeometry x="255" y="309" width="126" height="60" as="geometry" />
        </mxCell>
        <mxCell id="ZKnrM1Vrkn3Mo8lUjv3E-31" style="edgeStyle=orthogonalEdgeStyle;rounded=0;orthogonalLoop=1;jettySize=auto;html=1;" edge="1" parent="ZKnrM1Vrkn3Mo8lUjv3E-1" source="ZKnrM1Vrkn3Mo8lUjv3E-28" target="ZKnrM1Vrkn3Mo8lUjv3E-30">
          <mxGeometry relative="1" as="geometry" />
        </mxCell>
        <mxCell id="ZKnrM1Vrkn3Mo8lUjv3E-38" value="TRIGGER" style="edgeLabel;html=1;align=center;verticalAlign=middle;resizable=0;points=[];" connectable="0" vertex="1" parent="ZKnrM1Vrkn3Mo8lUjv3E-31">
          <mxGeometry x="0.0995" y="-1" relative="1" as="geometry">
            <mxPoint x="1" y="74" as="offset" />
          </mxGeometry>
        </mxCell>
        <mxCell id="ZKnrM1Vrkn3Mo8lUjv3E-40" style="edgeStyle=orthogonalEdgeStyle;rounded=0;orthogonalLoop=1;jettySize=auto;html=1;exitX=0;exitY=0.5;exitDx=0;exitDy=0;exitPerimeter=0;" edge="1" parent="ZKnrM1Vrkn3Mo8lUjv3E-1" source="ZKnrM1Vrkn3Mo8lUjv3E-30" target="ZKnrM1Vrkn3Mo8lUjv3E-36">
          <mxGeometry relative="1" as="geometry">
            <Array as="points">
              <mxPoint x="68" y="791" />
            </Array>
          </mxGeometry>
        </mxCell>
        <mxCell id="ZKnrM1Vrkn3Mo8lUjv3E-42" value="PUT ITEM" style="edgeLabel;html=1;align=center;verticalAlign=middle;resizable=0;points=[];" connectable="0" vertex="1" parent="ZKnrM1Vrkn3Mo8lUjv3E-40">
          <mxGeometry x="0.223" relative="1" as="geometry">
            <mxPoint as="offset" />
          </mxGeometry>
        </mxCell>
        <mxCell id="ZKnrM1Vrkn3Mo8lUjv3E-28" value="TAX_PAYMENT_PROCESSOR_QUEUE" style="sketch=0;outlineConnect=0;fontColor=#232F3E;gradientColor=none;strokeColor=#ffffff;fillColor=#232F3E;dashed=0;verticalLabelPosition=middle;verticalAlign=bottom;align=center;html=1;whiteSpace=wrap;fontSize=10;fontStyle=1;spacing=3;shape=mxgraph.aws4.productIcon;prIcon=mxgraph.aws4.sqs;" vertex="1" parent="ZKnrM1Vrkn3Mo8lUjv3E-1">
          <mxGeometry x="265" y="509" width="67" height="92" as="geometry" />
        </mxCell>
        <mxCell id="ZKnrM1Vrkn3Mo8lUjv3E-33" style="edgeStyle=orthogonalEdgeStyle;rounded=0;orthogonalLoop=1;jettySize=auto;html=1;" edge="1" parent="ZKnrM1Vrkn3Mo8lUjv3E-1" source="ZKnrM1Vrkn3Mo8lUjv3E-30" target="ZKnrM1Vrkn3Mo8lUjv3E-32">
          <mxGeometry relative="1" as="geometry">
            <Array as="points">
              <mxPoint x="609" y="786" />
              <mxPoint x="609" y="786" />
            </Array>
          </mxGeometry>
        </mxCell>
        <mxCell id="ZKnrM1Vrkn3Mo8lUjv3E-39" value="Produce" style="edgeLabel;html=1;align=center;verticalAlign=middle;resizable=0;points=[];" connectable="0" vertex="1" parent="ZKnrM1Vrkn3Mo8lUjv3E-33">
          <mxGeometry x="-0.7027" y="1" relative="1" as="geometry">
            <mxPoint x="36" y="1" as="offset" />
          </mxGeometry>
        </mxCell>
        <mxCell id="ZKnrM1Vrkn3Mo8lUjv3E-58" style="edgeStyle=orthogonalEdgeStyle;rounded=0;orthogonalLoop=1;jettySize=auto;html=1;" edge="1" parent="ZKnrM1Vrkn3Mo8lUjv3E-1" source="ZKnrM1Vrkn3Mo8lUjv3E-30" target="ZKnrM1Vrkn3Mo8lUjv3E-11">
          <mxGeometry relative="1" as="geometry">
            <Array as="points">
              <mxPoint x="469" y="985" />
            </Array>
          </mxGeometry>
        </mxCell>
        <mxCell id="ZKnrM1Vrkn3Mo8lUjv3E-59" value="Debit" style="edgeLabel;html=1;align=center;verticalAlign=middle;resizable=0;points=[];" connectable="0" vertex="1" parent="ZKnrM1Vrkn3Mo8lUjv3E-58">
          <mxGeometry x="0.5203" relative="1" as="geometry">
            <mxPoint as="offset" />
          </mxGeometry>
        </mxCell>
        <mxCell id="ZKnrM1Vrkn3Mo8lUjv3E-30" value="TAX-PROCESSOR-FUNCTION" style="outlineConnect=0;dashed=0;verticalLabelPosition=bottom;verticalAlign=top;align=center;html=1;shape=mxgraph.aws3.lambda_function;fillColor=#F58534;gradientColor=none;" vertex="1" parent="ZKnrM1Vrkn3Mo8lUjv3E-1">
          <mxGeometry x="450" y="755" width="69" height="72" as="geometry" />
        </mxCell>
        <mxCell id="ZKnrM1Vrkn3Mo8lUjv3E-35" style="edgeStyle=orthogonalEdgeStyle;rounded=0;orthogonalLoop=1;jettySize=auto;html=1;" edge="1" parent="ZKnrM1Vrkn3Mo8lUjv3E-1" source="ZKnrM1Vrkn3Mo8lUjv3E-32" target="ZKnrM1Vrkn3Mo8lUjv3E-34">
          <mxGeometry relative="1" as="geometry" />
        </mxCell>
        <mxCell id="ZKnrM1Vrkn3Mo8lUjv3E-37" value="TRIGGER" style="edgeLabel;html=1;align=center;verticalAlign=middle;resizable=0;points=[];" connectable="0" vertex="1" parent="ZKnrM1Vrkn3Mo8lUjv3E-35">
          <mxGeometry x="-0.3144" y="1" relative="1" as="geometry">
            <mxPoint as="offset" />
          </mxGeometry>
        </mxCell>
        <mxCell id="ZKnrM1Vrkn3Mo8lUjv3E-32" value="TAX-PAYMENT-PROCESSOR-QUE-DLQ" style="sketch=0;outlineConnect=0;fontColor=#232F3E;gradientColor=none;strokeColor=#ffffff;fillColor=#232F3E;dashed=0;verticalLabelPosition=middle;verticalAlign=bottom;align=center;html=1;whiteSpace=wrap;fontSize=10;fontStyle=1;spacing=3;shape=mxgraph.aws4.productIcon;prIcon=mxgraph.aws4.sqs;" vertex="1" parent="ZKnrM1Vrkn3Mo8lUjv3E-1">
          <mxGeometry x="663" y="735" width="52" height="105" as="geometry" />
        </mxCell>
        <mxCell id="ZKnrM1Vrkn3Mo8lUjv3E-41" style="edgeStyle=orthogonalEdgeStyle;rounded=0;orthogonalLoop=1;jettySize=auto;html=1;" edge="1" parent="ZKnrM1Vrkn3Mo8lUjv3E-1" source="ZKnrM1Vrkn3Mo8lUjv3E-34" target="ZKnrM1Vrkn3Mo8lUjv3E-36">
          <mxGeometry relative="1" as="geometry">
            <Array as="points">
              <mxPoint x="824" y="890" />
            </Array>
          </mxGeometry>
        </mxCell>
        <mxCell id="ZKnrM1Vrkn3Mo8lUjv3E-43" value="GET/PUT ITEM" style="edgeLabel;html=1;align=center;verticalAlign=middle;resizable=0;points=[];" connectable="0" vertex="1" parent="ZKnrM1Vrkn3Mo8lUjv3E-41">
          <mxGeometry x="-0.2624" y="-1" relative="1" as="geometry">
            <mxPoint as="offset" />
          </mxGeometry>
        </mxCell>
        <mxCell id="ZKnrM1Vrkn3Mo8lUjv3E-69" style="edgeStyle=orthogonalEdgeStyle;rounded=0;orthogonalLoop=1;jettySize=auto;html=1;" edge="1" parent="ZKnrM1Vrkn3Mo8lUjv3E-1" source="ZKnrM1Vrkn3Mo8lUjv3E-34" target="ZKnrM1Vrkn3Mo8lUjv3E-66">
          <mxGeometry relative="1" as="geometry">
            <Array as="points">
              <mxPoint x="918" y="745" />
              <mxPoint x="806" y="745" />
              <mxPoint x="806" y="531" />
            </Array>
          </mxGeometry>
        </mxCell>
        <mxCell id="ZKnrM1Vrkn3Mo8lUjv3E-93" style="edgeStyle=orthogonalEdgeStyle;rounded=0;orthogonalLoop=1;jettySize=auto;html=1;entryX=1;entryY=0.5;entryDx=0;entryDy=0;" edge="1" parent="ZKnrM1Vrkn3Mo8lUjv3E-1" source="ZKnrM1Vrkn3Mo8lUjv3E-34" target="ZKnrM1Vrkn3Mo8lUjv3E-11">
          <mxGeometry relative="1" as="geometry">
            <Array as="points">
              <mxPoint x="885" y="985" />
            </Array>
          </mxGeometry>
        </mxCell>
        <mxCell id="ZKnrM1Vrkn3Mo8lUjv3E-34" value="TAX-PROCESSOR-DLQ-FUNCTION" style="outlineConnect=0;dashed=0;verticalLabelPosition=bottom;verticalAlign=top;align=center;html=1;shape=mxgraph.aws3.lambda_function;fillColor=#F58534;gradientColor=none;" vertex="1" parent="ZKnrM1Vrkn3Mo8lUjv3E-1">
          <mxGeometry x="850" y="858" width="69" height="72" as="geometry" />
        </mxCell>
        <mxCell id="ZKnrM1Vrkn3Mo8lUjv3E-36" value="PAYMENT-TABLE" style="outlineConnect=0;dashed=0;verticalLabelPosition=bottom;verticalAlign=top;align=center;html=1;shape=mxgraph.aws3.dynamo_db;fillColor=#2E73B8;gradientColor=none;" vertex="1" parent="ZKnrM1Vrkn3Mo8lUjv3E-1">
          <mxGeometry x="29" y="849" width="72" height="81" as="geometry" />
        </mxCell>
        <mxCell id="ZKnrM1Vrkn3Mo8lUjv3E-46" value="Amazon RDS" style="sketch=0;outlineConnect=0;fontColor=#232F3E;gradientColor=none;strokeColor=#ffffff;fillColor=#232F3E;dashed=0;verticalLabelPosition=middle;verticalAlign=bottom;align=center;html=1;whiteSpace=wrap;fontSize=10;fontStyle=1;spacing=3;shape=mxgraph.aws4.productIcon;prIcon=mxgraph.aws4.rds;" vertex="1" parent="ZKnrM1Vrkn3Mo8lUjv3E-1">
          <mxGeometry x="419" y="378" width="80" height="100" as="geometry" />
        </mxCell>
        <mxCell id="ZKnrM1Vrkn3Mo8lUjv3E-63" style="edgeStyle=orthogonalEdgeStyle;rounded=0;orthogonalLoop=1;jettySize=auto;html=1;" edge="1" parent="ZKnrM1Vrkn3Mo8lUjv3E-1" source="ZKnrM1Vrkn3Mo8lUjv3E-48" target="ZKnrM1Vrkn3Mo8lUjv3E-51">
          <mxGeometry relative="1" as="geometry" />
        </mxCell>
        <mxCell id="ZKnrM1Vrkn3Mo8lUjv3E-64" value="TRIGGER" style="edgeLabel;html=1;align=center;verticalAlign=middle;resizable=0;points=[];" connectable="0" vertex="1" parent="ZKnrM1Vrkn3Mo8lUjv3E-63">
          <mxGeometry x="-0.1389" y="-4" relative="1" as="geometry">
            <mxPoint x="-25" y="-4" as="offset" />
          </mxGeometry>
        </mxCell>
        <mxCell id="ZKnrM1Vrkn3Mo8lUjv3E-48" value="REPORT-GENERATOR-QUEUE" style="sketch=0;outlineConnect=0;fontColor=#232F3E;gradientColor=none;strokeColor=#ffffff;fillColor=#232F3E;dashed=0;verticalLabelPosition=middle;verticalAlign=bottom;align=center;html=1;whiteSpace=wrap;fontSize=10;fontStyle=1;spacing=3;shape=mxgraph.aws4.productIcon;prIcon=mxgraph.aws4.sqs;" vertex="1" parent="ZKnrM1Vrkn3Mo8lUjv3E-1">
          <mxGeometry x="724" y="269" width="90.5" height="134" as="geometry" />
        </mxCell>
        <mxCell id="ZKnrM1Vrkn3Mo8lUjv3E-65" style="edgeStyle=orthogonalEdgeStyle;rounded=0;orthogonalLoop=1;jettySize=auto;html=1;" edge="1" parent="ZKnrM1Vrkn3Mo8lUjv3E-1" source="ZKnrM1Vrkn3Mo8lUjv3E-51" target="ZKnrM1Vrkn3Mo8lUjv3E-55">
          <mxGeometry relative="1" as="geometry" />
        </mxCell>
        <mxCell id="ZKnrM1Vrkn3Mo8lUjv3E-51" value="REPORT-GENERATOR-FUNCTION" style="outlineConnect=0;dashed=0;verticalLabelPosition=bottom;verticalAlign=top;align=center;html=1;shape=mxgraph.aws3.lambda_function;fillColor=#F58534;gradientColor=none;" vertex="1" parent="ZKnrM1Vrkn3Mo8lUjv3E-1">
          <mxGeometry x="895" y="411" width="69" height="72" as="geometry" />
        </mxCell>
        <mxCell id="ZKnrM1Vrkn3Mo8lUjv3E-55" value="Amazon S3" style="sketch=0;outlineConnect=0;fontColor=#232F3E;gradientColor=none;strokeColor=#ffffff;fillColor=#232F3E;dashed=0;verticalLabelPosition=middle;verticalAlign=bottom;align=center;html=1;whiteSpace=wrap;fontSize=10;fontStyle=1;spacing=3;shape=mxgraph.aws4.productIcon;prIcon=mxgraph.aws4.s3;" vertex="1" parent="ZKnrM1Vrkn3Mo8lUjv3E-1">
          <mxGeometry x="889.5" y="601" width="80" height="100" as="geometry" />
        </mxCell>
        <mxCell id="ZKnrM1Vrkn3Mo8lUjv3E-66" value="PUSH_DISPACHER" style="sketch=0;points=[[0,0,0],[0.25,0,0],[0.5,0,0],[0.75,0,0],[1,0,0],[0,1,0],[0.25,1,0],[0.5,1,0],[0.75,1,0],[1,1,0],[0,0.25,0],[0,0.5,0],[0,0.75,0],[1,0.25,0],[1,0.5,0],[1,0.75,0]];outlineConnect=0;fontColor=#232F3E;fillColor=#E7157B;strokeColor=#ffffff;dashed=0;verticalLabelPosition=bottom;verticalAlign=top;align=center;html=1;fontSize=12;fontStyle=0;aspect=fixed;shape=mxgraph.aws4.resourceIcon;resIcon=mxgraph.aws4.sns;" vertex="1" parent="ZKnrM1Vrkn3Mo8lUjv3E-1">
          <mxGeometry x="637" y="492" width="78" height="78" as="geometry" />
        </mxCell>
        <mxCell id="ZKnrM1Vrkn3Mo8lUjv3E-67" style="edgeStyle=orthogonalEdgeStyle;rounded=0;orthogonalLoop=1;jettySize=auto;html=1;entryX=0.5;entryY=1;entryDx=0;entryDy=0;entryPerimeter=0;" edge="1" parent="ZKnrM1Vrkn3Mo8lUjv3E-1" source="ZKnrM1Vrkn3Mo8lUjv3E-30" target="ZKnrM1Vrkn3Mo8lUjv3E-66">
          <mxGeometry relative="1" as="geometry">
            <Array as="points">
              <mxPoint x="541" y="757" />
              <mxPoint x="541" y="713" />
              <mxPoint x="676" y="713" />
            </Array>
          </mxGeometry>
        </mxCell>
        <mxCell id="ZKnrM1Vrkn3Mo8lUjv3E-68" style="edgeStyle=orthogonalEdgeStyle;rounded=0;orthogonalLoop=1;jettySize=auto;html=1;entryX=1;entryY=0.5;entryDx=0;entryDy=0;entryPerimeter=0;" edge="1" parent="ZKnrM1Vrkn3Mo8lUjv3E-1" source="ZKnrM1Vrkn3Mo8lUjv3E-51" target="ZKnrM1Vrkn3Mo8lUjv3E-66">
          <mxGeometry relative="1" as="geometry" />
        </mxCell>
        <mxCell id="ZKnrM1Vrkn3Mo8lUjv3E-4" value="Prodesp API" style="rounded=1;whiteSpace=wrap;html=1;" vertex="1" parent="1">
          <mxGeometry x="-278" y="-383" width="126" height="60" as="geometry" />
        </mxCell>
        <mxCell id="ZKnrM1Vrkn3Mo8lUjv3E-3" style="edgeStyle=orthogonalEdgeStyle;rounded=0;orthogonalLoop=1;jettySize=auto;html=1;entryX=0.5;entryY=1;entryDx=0;entryDy=0;" edge="1" parent="1" source="ZKnrM1Vrkn3Mo8lUjv3E-2" target="ZKnrM1Vrkn3Mo8lUjv3E-4">
          <mxGeometry relative="1" as="geometry">
            <mxPoint x="953" y="197" as="targetPoint" />
          </mxGeometry>
        </mxCell>
        <mxCell id="ZKnrM1Vrkn3Mo8lUjv3E-10" value="GET / POST" style="edgeLabel;html=1;align=center;verticalAlign=middle;resizable=0;points=[];" connectable="0" vertex="1" parent="ZKnrM1Vrkn3Mo8lUjv3E-3">
          <mxGeometry x="-0.5665" y="-2" relative="1" as="geometry">
            <mxPoint x="-75" y="-139" as="offset" />
          </mxGeometry>
        </mxCell>
        <mxCell id="ZKnrM1Vrkn3Mo8lUjv3E-8" style="edgeStyle=orthogonalEdgeStyle;rounded=0;orthogonalLoop=1;jettySize=auto;html=1;" edge="1" parent="1" source="ZKnrM1Vrkn3Mo8lUjv3E-7" target="ZKnrM1Vrkn3Mo8lUjv3E-6">
          <mxGeometry relative="1" as="geometry" />
        </mxCell>
        <mxCell id="ZKnrM1Vrkn3Mo8lUjv3E-9" value="GET" style="edgeLabel;html=1;align=center;verticalAlign=middle;resizable=0;points=[];" connectable="0" vertex="1" parent="ZKnrM1Vrkn3Mo8lUjv3E-8">
          <mxGeometry x="-0.432" y="-2" relative="1" as="geometry">
            <mxPoint as="offset" />
          </mxGeometry>
        </mxCell>
        <mxCell id="ZKnrM1Vrkn3Mo8lUjv3E-7" value="Actor" style="shape=umlActor;verticalLabelPosition=bottom;verticalAlign=top;html=1;outlineConnect=0;" vertex="1" parent="1">
          <mxGeometry x="-647" y="35" width="30" height="60" as="geometry" />
        </mxCell>
        <mxCell id="ZKnrM1Vrkn3Mo8lUjv3E-14" style="edgeStyle=orthogonalEdgeStyle;rounded=0;orthogonalLoop=1;jettySize=auto;html=1;" edge="1" parent="1" source="ZKnrM1Vrkn3Mo8lUjv3E-11" target="ZKnrM1Vrkn3Mo8lUjv3E-15">
          <mxGeometry relative="1" as="geometry">
            <mxPoint x="232" y="783" as="targetPoint" />
          </mxGeometry>
        </mxCell>
        <mxCell id="ZKnrM1Vrkn3Mo8lUjv3E-16" value="POST" style="edgeLabel;html=1;align=center;verticalAlign=middle;resizable=0;points=[];" connectable="0" vertex="1" parent="ZKnrM1Vrkn3Mo8lUjv3E-14">
          <mxGeometry x="0.0252" relative="1" as="geometry">
            <mxPoint x="-7" y="77" as="offset" />
          </mxGeometry>
        </mxCell>
        <mxCell id="ZKnrM1Vrkn3Mo8lUjv3E-57" value="" style="group" connectable="0" vertex="1" parent="1">
          <mxGeometry x="-65" y="1000" width="120" height="60" as="geometry" />
        </mxCell>
        <mxCell id="ZKnrM1Vrkn3Mo8lUjv3E-15" value="ITAU ON PREMISIS" style="rounded=1;whiteSpace=wrap;html=1;" vertex="1" parent="ZKnrM1Vrkn3Mo8lUjv3E-57">
          <mxGeometry width="120" height="60" as="geometry" />
        </mxCell>
        <mxCell id="ZKnrM1Vrkn3Mo8lUjv3E-56" value="" style="shape=image;verticalLabelPosition=bottom;labelBackgroundColor=default;verticalAlign=top;aspect=fixed;imageAspect=0;image=data:image/svg+xml,PHN2ZyBoZWlnaHQ9IjUwMCIgd2lkdGg9IjUwMCIgeG1sbnM9Imh0dHA6Ly93d3cudzMub3JnLzIwMDAvc3ZnIiB2aWV3Qm94PSIwIDAgNTAwIDUwMCI+PHBhdGggc3R5bGU9InN0cm9rZTpub25lO2ZpbGwtcnVsZTpub256ZXJvO2ZpbGw6I0ZGNjIwMDtmaWxsLW9wYWNpdHk6MSIgZD0iTTIxOC42NzYgMTAuNTc0Yy0xMy43OTcuMzI4LTIzLjkxOC44MTMtNDIuNDczIDEuOTU3LTguNTgyLjUxMi0xNy45NSAxLjI2Ni0yNC41NDcgMS45MjYtMS42NTYuMTgtNS4xMi41MTItNy42OC43NTQtMTAuNzUzIDEuMDU1LTI2LjcxOCAzLjA3LTMzLjQzMyA0LjIxNS0xLjQxOC4yNDItMy40OTYuNTc0LTQuNjY4Ljc1NC0xLjE0NS4xNTItMy4xOTUuNTExLTQuNTIuNzU0LTEuMzI0LjI0Mi0zLjU1NC42NjQtNC45NjguOTAyLTQuOTczLjg0NC0xMy40MzQgMi41NjItMTguMjIzIDMuNzA3LTEuMzI4LjMzMi0zLjcwNy45MDItNS4yNzMgMS4yNjYtMS41NjcuMzU5LTIuOTguNjkxLTMuMTYuNzIyLTguODI5IDIuMTA2LTE3LjU5NCA2LjM1Ni0yNC4zNCAxMS44NjdDMzguODI0IDQ0LjczIDMyLjk1MyA1My4zNDQgMzAgNjEuODk4Yy0uNDggMS4zMjUtLjk2NSAyLjY4LTEuMTEzIDMuMDEyLS41MTIgMS4xNDUtMi43NDIgMTAuNzgxLTQuMzQgMTguNjc2LS4yMzggMS4zMjQtLjY2IDMuMjgxLS45MDIgNC4zNjctLjI0MyAxLjA4Mi0uNTcgMi45OC0uNzgyIDQuMjE1LS4xODMgMS4yMzQtLjQyMiAyLjc0Mi0uNTc0IDMuMzEyLS40NTMgMS43Mi0yLjI4OSAxMy40NjUtMy40NjUgMjEuOTg5LTEuMTQ0IDguMjU0LTEuODk4IDE0LjI1LTIuNTU4IDIwLjMzMi0uMzMyIDIuOTgtLjY2NCA1LjkwMi0uNzIzIDYuNDc2LS4wOS41Ny0uMzYzIDMuNDkzLS42MzMgNi40NzctLjI0MiAyLjk4LS42MDEgNi42MjUtLjc4NSA4LjEzMy0uNjMzIDUuNTM5LTIuMiAyOS42NjgtMi45OCA0Ni42ODctLjYwMiAxMi42MTctLjk5MyAzOS42MzctLjc4MiA1NC4zNjcuMjExIDE4LjM3Mi42NiAzNC43OSAxLjA4MiA0MC41MTIuMTUzIDIuMzE3LjQ1MyA3LjIuNjMzIDEwLjg0NC4xOCAzLjY0NC40MjIgOC4zMTIuNTc0IDEwLjM5LjY5MiAxMC40MjIgMS4yMzUgMTcuMjU4IDEuNTA0IDE5LjQyNi4xNTMgMS4zMjguNTEyIDQuODUyLjc1NCA3LjgwMS4yNDIgMi45NTMuNjAyIDYuNDc3Ljc1NCA3LjgzMi4xOCAxLjM1Ni41MTIgNC4yNzcuNzUgNi41MDguNzU0IDcuMTM3IDEuMzI4IDExLjgwNSAxLjgwOSAxNC45MS4yNDIgMS42NTYuNjY0IDQuNDg4LjkwMiA2LjMyNC44NzUgNi42MjUgMS44OTggMTMuMDcgMy4wMTIgMTguOTc3LjI0MiAxLjMyNC42MzMgMy41NTUuOTA2IDQuOTY5LjUxMiAzLjAxMSAxLjY4NyA5LjAwNyAyLjUzMSAxMi44IDIuODkgMTMuMjg2IDQuMTU2IDE3LjI1OCA3LjU1OSAyMy43OTcuOTMzIDEuODA1IDIuMTM3IDMuOTE0IDIuNjggNC42NjguNTExLjc1NCAxLjI2NSAxLjgzNiAxLjY1NiAyLjQxIDEuNzE4IDIuNTU5IDYuNjI5IDcuNTU5IDkuMzQgOS40ODkuNDQ5LjMyOCAxLjMyNC45NiAxLjg5NCAxLjQxNC42MDYuNDggMS4xNzYuODQzIDEuMzI4Ljg0My4xMjEgMCAuNDIyLjIxMS42Ni40NTQgMS4xNzYgMS4xNDQgOS40NjEgNS4wOSAxMy4wMTIgNi4xNDQuNjY0LjIxMSAxLjQ3Ny40OCAxLjgwOS42MzMuNzg1LjM2IDUuMjEgMS40NzMgMTAuNTQzIDIuNjggMi4zMi41NDMgNC42OTkgMS4xMTMgNS4yNyAxLjI2NSAxLjM4Ni4zNiAxMC4xMiAyLjEwNiAxNi43MTggMy4zMTMgMy43OTMuNjkxIDExLjE3NiAxLjg2NyAxNS44MTIgMi41MzEgMS43NDcuMjM4IDMuOTc3LjU3IDQuOTcuNzUgMy42NDQuNjMzIDE4LjcwNiAyLjM4MyAyOC4xNjMgMy4yODUgMy40MDMuMzMyIDcuNTkuNzIzIDkuMzM2LjkwMiAyLjgzMi4zMDEgNS43MjMuNTQzIDE5LjU3OCAxLjUzNiAyLjA3OC4xNTIgNi44MDkuNDIyIDEwLjU0My42MDUgMy43MzUuMTggOC45NDYuNDUgMTEuNTk4LjYwMiAyMS40NDUgMS4yMzQgODIuNzcgMS4yMzQgMTAzLjkxNCAwIDIuNjUyLS4xOCA3Ljg2My0uNDIyIDExLjU5OC0uNjAyIDYuNDE0LS4zIDguNzY1LS40NTMgMTguODI0LTEuMjA3IDEyLjg5LS45OTIgMzEuODQtMi44MzIgMzguMjU0LTMuNzM0IDEuODM2LS4yNyA1LS42OTIgNy4wNzgtLjk2NSA3LjY4LS45OTIgMTguMjIzLTIuNTkgMjQuMjQ2LTMuNzAzIDYuNTk4LTEuMjA3IDE1LjMzMi0yLjk1MyAxNi43MTktMy4zMTMuNTctLjE1MiAyLjk0OS0uNzIyIDUuMjctMS4yNjUgNS4yMS0xLjE3NiA5LjczLTIuMzIgMTAuNTQyLTIuNjhhMTc0LjggMTc0LjggMCAwIDEgMy4wMTItMS4wNTVjMi40NjktLjgxMiAxMC42NjQtNC42OTkgMTEuMzU1LTUuMzYzLjIxMS0uMjExLjgxMy0uNjYgMS4zMjUtLjk2NSAyLjM1MS0xLjQ3MyAzLjQzMy0yLjMxNiA1LjU3NC00LjI0NiAyLjQxLTIuMiA1Ljc1NC01LjgxMiA2LjU2Ni03LjA0Ny4yNy0uNDIyLjk5My0xLjQ0NSAxLjU5NC0yLjI1OC42MzMtLjg0MyAxLjE0NS0xLjU5NyAxLjE0NS0xLjcxOCAwLS4xMjIuNDg0LS45NjUgMS4wNTQtMS44NjguNTc1LS45MDIgMS4yNjYtMi4yMyAxLjU0LTIuOTUzLjMtLjY5MS42LTEuNDQ1LjcyMi0xLjU5My41Ny0uNzU0IDIuNjgtNi43NSAzLjU4Mi0xMC4xNTMgMS40MTgtNS4yNyA0LjA2Ni0xNy43MSA1LjAzMS0yMy41ODYuMjQyLTEuNTA0LjUxMi0yLjkxOC42MDItMy4xNi4yNzMtLjY2NCAxLjkzLTEwLjk5NiAzLjQzMy0yMS41MzUuMzMyLTIuMzIuNjY0LTQuNjQuNzU0LTUuMTIxLjI0My0xLjM4NyAxLjMyNS0xMC42MzMgMS44MDktMTUuNTEyLjIzOC0yLjQxLjU3LTUuMTgzLjc1LTYuMTc2LjE4NC0uOTk2LjUxMi00LjI0Ni43NTQtNy4yMy4yNDItMi45OC41NzQtNi42NTYuNzIzLTguMTMzLjE4LTEuNTA0LjQ1My00LjkzNy42MzItNy42OC4xOC0yLjc0Mi40NTMtNi4xMTMuNjAyLTcuNTMuMTgzLTEuNDE1LjUxMi02LjYyNi43NTQtMTEuNTk1LjI3My00Ljk3Mi41NzQtMTEuMDg2Ljc1NC0xMy41NTQgMS4zNTUtMjEuODk5IDEuMzU1LTc5LjM2OCAwLTEwMS45NTctLjE1My0yLjU2My0uNDIyLTcuNTktLjYwMi0xMS4xNDUtLjE4My0zLjU1NS0uNDUzLTguMjU0LS42MDUtMTAuMzk0LS4xOC0yLjE2OC0uNTctNy41LS45MDMtMTEuODk1LS4zMzItNC4zOTgtLjY2NC04LjUyNy0uNzU0LTkuMTg3LS4wOS0uNjY1LS4zNTktMy41ODYtLjYwMS02LjQ3Ny0uMjQyLTIuODktLjUxMi01LjYwMi0uNjAyLTYuMDIzLS4wOS0uNDIyLS40MjItMy4xOTYtLjc1NC02LjE3Ni0uNzgtNy4yLTEuNzQ2LTE1LjE0OS0xLjk1Ny0xNi4wODItLjA5LS40MjItLjQyMi0yLjgzMi0uNzU0LTUuMzA1LTEuNDc2LTExLjI2Mi00LjIxNC0yNi45NTctNi41NjYtMzcuNjQ4LS4zMzItMS41MDgtLjg3MS0zLjk0Ni0xLjIwMy01LjQyMi0uODQ0LTMuODU2LTEuODQtNy43NDItMi4xNjgtOC40MzQtLjE1Mi0uMzMyLS40MjItMS4xNDQtLjYzMy0xLjgwOC0uNjY0LTIuMjI3LTQuMDA4LTkuNjY4LTQuODUxLTEwLjg0NC0uMTIyLS4xOC0xLjA4Mi0xLjU5NC0yLjExLTMuMTYtMi4xMzctMy4yMjMtNy42MTctOC45NDYtMTAuOTAyLTExLjM1Ni02LjUwNC00Ljc4OS0xMy43MzUtOC4wNDMtMjMuMDctMTAuMzMyYTQ0MC45MzIgNDQwLjkzMiAwIDAgMS00LjgyLTEuMjA3Yy0xLjExNC0uMzI4LTMuMzQ1LS44MTItOC4xMzQtMS44MDVhMzk2LjMxNyAzOTYuMzE3IDAgMCAxLTQuMDY2LS44NzVjLTUuODEzLTEuNDE0LTI0LjczLTQuNDg4LTM3LjA0Ny02LjA1NC0yLjQ3My0uMzAxLTQuOTEtLjYzMy01LjQyMi0uNzUtLjkwNi0uMTg0LTUuMjczLS42MzMtMTQuMTU2LTEuNTA4LTIuNDczLS4yNDItNS44NzUtLjYwMi03LjUzMS0uNzU0LTEuNjU2LS4xOC00LjY0LS40NS02LjYyNS0uNjMzLTEuOTg5LS4xNDgtNS4yNDItLjQyMi03LjIzLS41Ny02Ljc0Ny0uNTc0LTI1LjQ4MS0xLjY1Ni0zNS44NDQtMi4xMS0yMC4wMzItLjg3NC01Ny4wMi0xLjE0NC03OS45Ny0uNTdaTTg1Ljk2NSAyMTQuMDk4Yy4xOC4xNDggMS4wNTUuNDIyIDEuOTI2LjYzMiAxLjYyOS4zOTEgMy45MTggMS40NDYgNS42MzIgMi41OSAxLjM1Ni45MDMgNC41NTEgNC4zMzYgNS4xOCA1LjU0My4zMDUuNjAyLjYzMyAxLjE0NS43MjMgMS4yMzUuMDk0LjA5LjM2My42OTEuNjA1IDEuMzU1LjIxMS42Ni40OCAxLjM1Ni42MzMgMS41MDQuMzkuNTc0Ljg0NCA0LjE1Ni44NDQgNi44MDkgMCAyLjU5LS4zOTUgNS42MzItLjkwNiA2Ljc0Ni0xLjYyNSAzLjczNC0yLjQxIDQuOTY4LTQuNDU3IDcuMTQtMS44OTkgMS45NTctMi42OCAyLjU1OS01LjI3IDMuODI1LTIuMTEgMS4wNTQtMy42MTcgMS41OTctNC44MiAxLjcxNC0uOTY1LjEyMS0xLjgwOS4zMzItMS44OTkuNDU0LS4yMS4zNjMtNi43NDYuMzYzLTYuNzQ2IDAgMC0uMTIyLS43NTQtLjMzMy0xLjcxOS0uNDU0LS45MzMtLjExNy0yLjEwNS0uMzktMi42MTctLjYwMWEzMC45OTggMzAuOTk4IDAgMCAwLTEuOTg4LS44MTNjLS41NzQtLjIxLTEuMTE3LS40NTMtMS4yMDctLjU0My0uMDktLjEyLS41NDMtLjM5LTEuMDU1LS42MzItMS43NDYtLjg3Mi01LjM2LTQuODgtNi40MTQtNy4wNzktLjU3NC0xLjE3NS0xLjExMy0yLjMyLTEuMjY1LTIuNTU4LTEuMDI0LTIuMDUtMS4yMDQtMTEuMzg3LS4yNDMtMTMuNTU1LjI3NC0uNTc0LjY2NC0xLjUzNS44NzUtMi4xMS4yMTEtLjU3LjQ1My0xLjExMy41NDMtMS4yMDIuMDktLjA5LjQ1LS42OTYuNzgyLTEuMzU2LjU3NC0xLjExNyA0LjE1Ni00Ljk3MiA0LjY2OC00Ljk3Mi4xMiAwIC4zOTQtLjIxMS42MDUtLjQ4LjU3LS42MzQgMy40OTItMi4wNDggNS4yNy0yLjUuODQzLS4yMTIgMS43NzctLjUxMyAyLjEwOS0uNjY1LjMzMi0uMTQ4IDEuMTQ0LS4zIDEuODA1LS4zOSAxLjc3Ny0uMTggOC4wMTUuMDkgOC40MDYuMzYzWm0zMjguMTkxIDIwLjk5MnYxNS4yMWgtNTguNDMzdi0yMC4zNTlsMy4yNTQtLjUxNWM3LjE5OS0xLjExMyAxMS42ODctMS44NjcgMTEuOTU3LTIuMDQ3LjE4LS4xMjEgMS42NTYtLjM2IDMuMzEyLS41NyAxLjY1Ni0uMjExIDMuMTY0LS40ODUgMy4zMTMtLjYwNi4xODMtLjExNyAxLjU5Ny0uMzkgMy4xNjQtLjYwMSAxLjU2Ni0uMTggMy42MTMtLjU0MyA0LjUyLS43ODIuOTAyLS4yMSAyLjgtLjU0MyA0LjIxNC0uNzIyIDEuNDE4LS4xODQgMi44MzItLjQ1MyAzLjE2NC0uNTc1LjMzMi0uMTQ4IDEuODM2LS40MjEgMy4zMTMtLjYzMiAxLjUwNy0uMTggMy4xOTEtLjQ1IDMuNzY1LS42MzMuNTctLjE0OSAyLjc0Mi0uNTcgNC44Mi0uOTAzIDIuMDc5LS4zMzIgNC43OS0uNzggNi4wMjQtLjk5MiAxLjIzNC0uMjQyIDIuNTU5LS40MjIgMi45NS0uNDUzbC42NjMtLjAzMVptLTI0OS4zOTggMTMuNDMzdjE4LjA0M2gzMC4xMnYyNi44MDlIMTY0LjczbC4xMTggMjcuOTIyYy4wOTMgMzAuMDkuMDMgMjguNjEzIDEuNjYgMzIuMzE2IDEuMjM0IDIuODY0IDQuNzI2IDUuNzg1IDcuNzM4IDYuNTA4LjUxMi4xMjEgMS4wODYuMzYgMS4zMjguNTQzLjU3LjQ1IDEyLjc3LjQ1IDEzLjMxMy0uMDMxLjIzOC0uMTggMS4zMjQtLjQyMiAyLjQ2OC0uNTQzbDIuMDItLjIxMXYyNi40MThsLS44MTYuMzZjLS43NS4zMzEtNC4yMTUuODc0LTguOTczIDEuNDQ1LTYuNzc3Ljc4NS0xOS4xMjkuODc1LTE5Ljg1Mi4xMi0uMTgtLjE0OC0uNjYtLjI2OS0xLjExMy0uMjY5LTEuMTc2IDAtNi4wNTUtLjkwNi02LjQxOC0xLjE3Ni0uMTgtLjEyLS45OTItLjQyMi0xLjgzNi0uNjAxLS44MTItLjIxMS0xLjYyNS0uNDg1LTEuODA4LS42MDItLjE0OS0uMTUyLS44NC0uNDIyLTEuNTA0LS42MzMtLjY2NC0uMjEtMS4yNjYtLjQ4NC0xLjM1Ni0uNTc0LS4wOS0uMDktLjYzMy0uNDIyLTEuMjA3LS43NTQtMi41LTEuMzI0LTMuMjUtMS44MDQtNC41NzgtMi45MjItLjc4MS0uNjMyLTEuNTA0LTEuMTcxLTEuNjU2LTEuMTcxLS4zMDEtLjAzMi0yLjU5LTIuNTMyLTQuMzk1LTQuODItMS4zODYtMS43NzgtMy40MzctNS4xOC00LjEyOS02LjkzLS4yNDItLjU3LS41MTEtMS4xMTQtLjYwMS0xLjIwNC0uMTIxLS4wOS0uNDIyLTEuMDIzLS43MjMtMi4xMDktLjI3My0xLjA4Mi0uNjMzLTIuMjI3LS43ODUtMi41NTktLjE0OC0uMzMyLS41MTItMS42ODctLjc1LTMuMDExYTE0NC4yODYgMTQ0LjI4NiAwIDAgMC0uODE2LTMuNzY2Yy0uMjExLS45MDItLjM2LTExLjUwOC0uNDUtMzEuNTY2bC0uMTItMzAuMThoLTE3LjQ0MnYtMjYuODA5aDE3LjQ3M3YtMzAuMzYzbDIuMDQ2LS4yMWMxLjExNC0uMTE4IDIuMTY4LS4zMjkgMi4zMi0uNDUuMTgtLjEyMSAxLjY1Ny0uMzkgMy4zMTMtLjYwMiAxLjY1Ni0uMjEgMy4xNjQtLjUxNSAzLjMxMy0uNjMyLjE4LS4xMjEgMi4wNzgtLjQ1NCA0LjIxOC0uNzIzIDIuMTY4LS4zMDUgNC4wNjctLjYzMyA0LjIxNS0uNzU0LjE4LS4xMjEgMS4xNzYtLjMzMiAyLjI1OC0uNDIyYTQ5LjcxOSA0OS43MTkgMCAwIDAgNC4yMTktLjY5MWMzLjIyMy0uNjY0IDguODU1LTEuNTQgOS4xMjUtMS4zODcuMTIxLjA1OS4yMSA4LjI1NC4yMSAxOC4xOTFabTk5Ljg1MSAxNS4xOGM0LjIxNS4yNDIgOC45NzcuNzg1IDkuMzM2IDEuMDU1LjE4LjEyLjkwMy4zMzIgMS42NTcuNDIyIDEuNzE4LjI3MyA1LjkwNiAxLjUwNyA4LjQzMyAyLjUzIDIuMTEuODQ1IDYuODA5IDMuMTkyIDcuNTMxIDMuNzk4LjI0My4xOC43ODIuNTM5IDEuMjA0LjcyMi40MjEuMjExIDEuNzUgMS4yNjIgMi45MjEgMi4yOSAxLjE3NiAxLjA1NCAyLjI2MiAxLjk1NyAyLjQxIDIuMDE1LjQ1NC4yMTEgNS44MTMgNi43MTkgNS44MTMgNy4wNzggMCAuMDkuMjc0LjU3NS42MDYgMS4wMjQuNjMyLjkwNiAzLjMxMiA2LjExNyAzLjMxMiA2LjQ0OSAwIC4xMTcuMjQyLjc4MS41NyAxLjQ3My4zMDEuNjk1LjY2NCAxLjc1Ljc4NiAyLjMyLjEyLjU3NC4zMzIgMS4xNzYuNDQ5IDEuMzU1LjEyLjE1My4zOTQgMS4xMTQuNjA1IDIuMTEuMTguOTkyLjQyMiAyLjAyLjUxMiAyLjI1OC4xMjEuMjQyLjM5IDEuNTM1LjYzMyAyLjg2My4zNiAxLjk4OC40NDkgOS40ODguNTcgNDIuNjhsLjEyMSA0MC4zaC0zMi44NmwtLjAzLTMuNTU0Yy0uMDMyLTEuOTI2LS4xMjItNC43MjctLjI0My02LjIwNGwtLjE4LTIuNzEtLjg3NCAxLjIwM2MtMS4zODMgMS44NC01LjkzNCA2LjE3NS03LjczOSA3LjM3OS0zLjk0OSAyLjU5My01IDMuMjIyLTYuMDg2IDMuNTg2LS42NjQuMTgtMS41MzUuNTQzLTEuOTU3Ljc4LS40NTMuMjEyLTEuNTY2LjU3NS0yLjQ3Mi43NTUtLjkwMy4yMS0xLjgwNS40ODQtMS45NTcuNjAxLTEuNTM1IDEuMTQ1LTIwLjUxMiAxLjExNy0yMS45ODktLjAyNy0uMTQ4LS4xMjEtMS4yMzQtLjM5LTIuNDEtLjYwMi0xLjE0NC0uMjEtMi41LS41NDMtMy4wMTEtLjc4NS0uNDgtLjIxLTEuNzc4LS43NTQtMi44MjktMS4xNzZhNDIuNDIgNDIuNDIgMCAwIDEtMy41NTQtMS43NDYgNDkuODY2IDQ5Ljg2NiAwIDAgMC0yLjQ0Mi0xLjQxNGMtMS4yNjUtLjY5NS0xLjY4Ny0xLjA4Ni01LjEyLTQuNTItMy41MjQtMy41MjMtMy45NzctNC4wMDMtMy45NzctNC4zMzUgMC0uMTIxLS4zOTEtLjc4NS0uODQtMS40NzctLjQ4NS0uNjkxLTEuMTc2LTEuOTU3LTEuNTQtMi43NzMtLjM1OS0uODQtLjg0My0xLjgzNi0xLjA1NC0yLjI1OC0uMjM4LS40MjItLjU3LTEuNTA0LS43ODEtMi40MS0uMjExLS45MDMtLjQ4LTEuODA1LS42MDItMS45NTctLjMzMi0uNDIyLS45MDYtNC43LS45MDYtNi41NjcgMC0uODctLjE0OC0xLjc0Ni0uMzI4LTEuOTI1LS4zNjMtLjM2NC0uMjc0LTEuNTY3LjY2LTguODI5LjE4LTEuNDE0LjQ1My0yLjcxLjU3NC0yLjg1OS4xMjEtLjE4LjM5LS45NjUuNTctMS43NzcuMzkxLTEuNTY3IDEuMjA4LTMuNjE0IDIuMDUxLTUuMTUzLjI3LS41MTEuNjMtMS4yMDMuODEzLTEuNTY2LjE4LS4zOS40MjItLjY5MS41Ny0uNjkxLjEyMSAwIC4yMTEtLjE4LjIxMS0uMzkxIDAtLjMzMiAzLjMxMy00LjY0IDMuODg3LTUuMDMxLjEyLS4wOS4zMzItLjM5LjQyMi0uNjkyLjEyLS4zMzIuNDgtLjYzMi44MTItLjcyMi4zMzItLjA5LjYwMi0uMjc0LjYwMi0uMzk1IDAtLjMgNS4wNjItNC4yNzcgNi43NzctNS4yNyAxLjIzNC0uNzUzIDQuMDA4LTIuMTY3IDguMDQzLTQuMDk3LjU3NC0uMyA2LjIwMy0yLjEwNiA4LjY3Ni0yLjguOTAyLS4yNyAyLjY4LS42MzQgMy45MTQtLjgxMyAxLjIzNC0uMjExIDIuNDEtLjQ1MyAyLjU2Mi0uNTcuMTgtLjEyMiAxLjk4NS0uMzk1IDQuMDY3LS41NzUgMi4wNzgtLjE4IDQuNjM3LS40OCA1LjcyMi0uNjMzIDQuMjc4LS42MzIgMTkuMzA1LS41MTEgMjAuOTAzLjE1My41NDMuMjM4LjU3LjEyLjM2LTIuNDQyLS4xMTgtMS40NzYtLjMyOS0yLjc0Mi0uNDUtMi44MzItLjE1Mi0uMDktLjMzMi0uNjYtLjQ1My0xLjI2NS0uMjExLTEuMTE0LTEuMzU2LTMuNTUxLTIuNDM4LTUuMjExLS42OTUtMS4wNTEtMy42MTctNC4wNjctMy45NDktNC4wNjctLjExNyAwLS42MjktLjMtMS4xNDQtLjY5MS0xLjMyNS0uOTY1LTMuNDYxLTEuOTI2LTQuNzU4LTIuMTY4LS42MzMtLjEyMS0xLjE0NS0uMzMyLTEuMTQ1LS40NTMgMC0xLjMyNC0xOS40NTctMS41MzUtMjUuMy0uMjM5LS43NTQuMTQ5LTIuNS40OC0zLjkxNS43MjMtMS40MTguMjM4LTIuODMyLjU3LTMuMTY0LjcyMy0uMzMyLjE0OC0xLjQxNC40MjItMi40MS42MDEtLjk5Mi4xOC0yLjA3OC40NTMtMi40MS42MDItLjMzMi4xNTItMS41MzUuNDg0LTIuNjguNzU0LTEuMTQ0LjI3LTIuMjMuNTctMi40MS43MjItLjE4LjEyMi0uOTkyLjQyMi0xLjgzNi42MzMtLjgxMi4yMTEtMS42NTYuNTEyLTEuODA4LjYzMy0uMTguMTIxLS45OTMuMzktMS44MDkuNjAyLS44NC4xOC0yLjAxNi42MDEtMi42MTcuOTAyLS42MzMuMzMyLTEuMjA3LjU3NC0xLjI5Ny41NzQtLjA5IDAtLjE1Mi02LjI5Ny0uMTUyLTEzLjk3NiAwLTEwLjg3NS4wOTMtMTQuMDM2LjM5NC0xNC4yNzguMjExLS4xOCAxLjA1NS0uNDggMS44NjctLjY5MS44NDQtLjE4IDEuNjU3LS40NTMgMS44MDUtLjU3NC4xODQtLjEyMSAxLjE3Ni0uNDggMi4yNjItLjc1NCAxLjA4Mi0uMzAxIDIuMTA1LS42MyAyLjI1OC0uNzUuMTgtLjE1MyAxLjExMy0uMzk1IDIuMDc4LS42MDIuOTk2LS4yMSAyLjAyLS40ODQgMi4yNTgtLjYzMy4yNzMtLjEyIDEuNTA3LS40NTMgMi43NDItLjcyMmE1OC45NSA1OC45NSAwIDAgMCAyLjg2My0uNjMzYy4zMjgtLjA5NCAyLjAxNi0uMzYzIDMuNzYyLS42MDYgMS43NS0uMjM4IDMuNTg2LS41NyA0LjA2Ni0uNzIyIDEuNzUtLjU0IDE3LjUzMS0xLjUzNSAyMS4wODYtMS4zMjQuOTkyLjA1OCAzLjE2NC4xOCA0LjgyLjI3Wk05OC40OTIgMzI2LjUwOHY1OS45MzdINjMuMjU0VjI2Ni41NjZoMzUuMjM4Wm0yNjYuMjY2LTIyLjU5NGMwIDM1LjY2NC4xNTIgNDIuNTYzLjg3NSA0My41MjcuMTQ4LjE0OS4zMzIuNzUuNDUzIDEuMzI1LjQyMiAyLjI1NyAyLjM3OSA1LjU0MyA0LjYwNSA3Ljc3IDEuMTc2IDEuMjA2IDIuNSAyLjI2IDIuOTIyIDIuMzc4LjQ1My4wOTQuNzg1LjI3NC43ODUuMzk1IDAgLjExNyAxLjA1NS41MzkgMi4zNDguOTYgMS45My42MDYgMi45NTMuNzIzIDUuOTY1LjcyMyAyLjExIDAgMy45NDUtLjE0OCA0LjM2Ny0uMzI4LjM5LS4yMSAxLjMyNC0uNTEyIDIuMDc4LS43MjMuNzU0LS4yMSAyLjExLS44NDMgMy4wMTItMS40NDkgMS42ODctMS4wODIgNC44Mi0zLjk3MiA0LjgyLTQuNDU3IDAtLjE0OC40MjItLjgxMi45MDMtMS40NDUuNTExLS42NjQuOTA2LTEuMzI0LjkwNi0xLjUwNCAwLS4xODQuMjctLjgxNi41Ny0xLjQxOC4zMzItLjYwMi42OTItMS42MjUuODEzLTIuMjU4LjA5LS42NjQuMy0xLjMyNC40NTMtMS40NzYuNzU0LS45NjUuODc1LTcuMDQ3Ljg3NS00Mi4zOHYtMzYuOTg4aDM1LjIzOHYxMTkuODhINDIwLjA2Yy0xMy4wNCAwLTE2Ljc3OC0uMDktMTYuOTU3LS4zOTEtLjEyMi0uMTgtLjI3LTMuMDQzLS4zMzItNi4zMjUtLjA2LTMuMjUzLS4yMTEtNS45MzMtLjMyOS01LjkzMy0uMTIgMC0uNDg0LjM2LS44NDMuODEyLTEuNjg4IDIuMjktNC4zNCA0Ljg4LTguNDk2IDguMzEzLS42MDIuNDgtMS44MzYgMS4xNDQtNC41NDcgMi40NjktMS4yMzUuNjAxLTIuNTkgMS4yOTYtMy4wMTIgMS41MDctLjQyMi4yMTEtMS41NjYuNTQzLTIuNTYzLjc1NC0uOTkyLjIxMS0xLjg2Ny40OC0xLjk1Ny42MDItLjMuNDUtNS42MzIuOTAyLTEwLjkwMi45MDItNS4xOCAwLTkuMzk4LS4zNi0xMC42MzMtLjg3NS0uMzMyLS4xNDgtMS40NzYtLjUxMS0yLjU2Mi0uNzgxLTEuMDgyLS4yNy0yLjA3OC0uNjMzLTIuMjU4LS43NTQtLjE0OC0uMTIxLS44NzEtLjQyMi0xLjU2Ni0uNjMzLS43MjMtLjE4LTEuMjkzLS40NDktMS4yOTMtLjU3IDAtLjEyMS0uNTQzLS4zOS0xLjIwNy0uNjAyLS42Ni0uMjEtMS4yMDQtLjQ4NC0xLjIwNC0uNjA1IDAtLjExNy0uMzMyLS4zNi0uNzIyLS41NC0yLjU5LTEuMTc1LTguNDY1LTYuNjg3LTEwLjkzNC0xMC4yNDEtMS41MDgtMi4xNjgtMy44MjgtNi41MDgtNC4zMDgtOC4xMDItLjE4LS42MzMtLjU0My0xLjU2Ni0uNzU0LTIuMDUtLjIxMS0uNTEyLS41Ny0xLjU5NC0uNzU0LTIuNDEtLjE4LS44NC0uNDUtMS43MTYtLjYwMi0yLjAxNi0uMTQ4LS4yNzQtLjQyMi0xLjY4OC0uNjAxLTMuMTY0LS4xOC0xLjQ0Ni0uNTEyLTIuOTIyLS42OTItMy4yNTQtLjI3My0uNDUtLjM5NC0xMS4yMDQtLjQ1My00My4zMTNsLS4wOS00Mi42OGgzNS4yN1ptMCAwIi8+PHBhdGggc3R5bGU9InN0cm9rZTpub25lO2ZpbGwtcnVsZTpub256ZXJvO2ZpbGw6I0ZGNjIwMDtmaWxsLW9wYWNpdHk6MSIgZD0iTTI2MC42OTEgMzMzLjE2NGMtMS40NzIuMTQ5LTIuOTguMzktMy4zMTIuNTQtLjMzMi4xODMtMS40MTQuNDUyLTIuNDEuNjYzLS45NjEuMTgtMi4yNTguNTQzLTIuODYuODEzLTQuNTIgMS45NTctNi43MTggMy4yNTQtOC4yMjIgNC44Mi0xLjQ0NiAxLjUwOC0yLjg5NSA0LjMwOS0zLjEzMyA2LjA1NS0uMDYzLjYwMS0uMjc0IDEuMzg2LS40NTMgMS43MTUtLjMzMi42OTUtLjIxMSAyLjgzMi4zMzIgNS42MzIuNjAxIDMuMDQzIDMuMDEyIDYuNzUgNS4xNDggNy44NjQgMy43OTcgMS45NTcgNC41MiAyLjI1NyA2LjYzIDIuNTkgMy43OTIuNTcgMTEuMDIzLjI0MiAxMi41ODktLjYwMi4yNy0uMTUyIDEuMzg3LS42NjQgMi40NjktMS4xNDUgMS4wODYtLjUxMSAyLjUtMS4zMjggMy4xNjQtMS44NC42NjQtLjUxMSAxLjQxNC0xLjExMyAxLjY4Ny0xLjMyNCAxLjcxNS0xLjI5MyA0Ljg4LTYuNTM1IDUuMzAxLTguNzAzLjA5LS41NDMuMzMyLTEuMTc2LjUxMi0xLjQxOC4yMS0uMjcuMzYtMy4wNDMuNDIyLTguMDEybC4xMi03LjU5LTEuNjI4LS4xNzljLTIuMi0uMjczLTEzLjA0LS4xOC0xNi4zNTYuMTIxWm0wIDAiLz48L3N2Zz4=;" vertex="1" parent="ZKnrM1Vrkn3Mo8lUjv3E-57">
          <mxGeometry x="5" y="2" width="21" height="21" as="geometry" />
        </mxCell>
        <mxCell id="ZKnrM1Vrkn3Mo8lUjv3E-70" value="funcionalidade 1 - Obter lista de tributos" style="swimlane;whiteSpace=wrap;html=1;" vertex="1" parent="1">
          <mxGeometry x="1061" y="-203" width="588" height="490" as="geometry" />
        </mxCell>
        <mxCell id="ZKnrM1Vrkn3Mo8lUjv3E-22" value="response body json&lt;div&gt;&lt;br&gt;&lt;/div&gt;&lt;div&gt;{&lt;/div&gt;&lt;div&gt;&lt;span style=&quot;white-space: pre;&quot;&gt;&#x9;&lt;/span&gt;&quot;tax&quot;: [&lt;/div&gt;&lt;div&gt;&lt;span style=&quot;white-space: pre;&quot;&gt;&#x9;&lt;/span&gt;&lt;span style=&quot;white-space: pre;&quot;&gt;&#x9;&lt;/span&gt;{&lt;/div&gt;&lt;div&gt;&lt;span style=&quot;white-space: pre;&quot;&gt;&#x9;&lt;/span&gt;&lt;span style=&quot;white-space: pre;&quot;&gt;&#x9;&lt;/span&gt;&lt;span style=&quot;white-space: pre;&quot;&gt;&#x9;&lt;/span&gt;&quot;amount&quot;: 12323.123,&lt;/div&gt;&lt;div&gt;&lt;span style=&quot;white-space: pre;&quot;&gt;&#x9;&lt;/span&gt;&lt;span style=&quot;white-space: pre;&quot;&gt;&#x9;&lt;/span&gt;&lt;span style=&quot;white-space: pre;&quot;&gt;&#x9;&lt;/span&gt;&quot;type&quot;: &quot;IPVA&quot;,&lt;/div&gt;&lt;div&gt;&lt;span style=&quot;white-space: pre;&quot;&gt;&#x9;&lt;/span&gt;&lt;span style=&quot;white-space: pre;&quot;&gt;&#x9;&lt;/span&gt;&lt;span style=&quot;white-space: pre;&quot;&gt;&#x9;&lt;/span&gt;&quot;dueDate&quot;: &quot;2024-04-24T00:00:00&quot;&lt;br&gt;&lt;/div&gt;&lt;div&gt;&lt;span style=&quot;white-space: pre;&quot;&gt;&#x9;&lt;/span&gt;&lt;span style=&quot;white-space: pre;&quot;&gt;&#x9;&lt;/span&gt;}&lt;br&gt;&lt;/div&gt;&lt;div&gt;&lt;span style=&quot;white-space: pre;&quot;&gt;&#x9;&lt;/span&gt;]&lt;br&gt;}&lt;br&gt;&lt;/div&gt;" style="text;html=1;whiteSpace=wrap;overflow=hidden;rounded=0;strokeColor=default;" vertex="1" parent="ZKnrM1Vrkn3Mo8lUjv3E-70">
          <mxGeometry x="98.5" y="134" width="372" height="182.5" as="geometry" />
        </mxCell>
        <mxCell id="ZKnrM1Vrkn3Mo8lUjv3E-23" value="URL = api/prodesp/tax?document=42223485898&amp;amp;taxType=IPVA&lt;br&gt;HTTP VERB GET" style="text;html=1;align=center;verticalAlign=middle;whiteSpace=wrap;rounded=0;" vertex="1" parent="ZKnrM1Vrkn3Mo8lUjv3E-70">
          <mxGeometry x="18" y="37" width="533" height="45" as="geometry" />
        </mxCell>
        <mxCell id="ZKnrM1Vrkn3Mo8lUjv3E-75" value="funcionalidade 2 - Pagamento de tributo" style="swimlane;whiteSpace=wrap;html=1;" vertex="1" parent="1">
          <mxGeometry x="1061" y="342" width="615" height="490" as="geometry" />
        </mxCell>
        <mxCell id="ZKnrM1Vrkn3Mo8lUjv3E-76" value="response code 201&lt;br&gt;&lt;div&gt;&lt;br&gt;&lt;/div&gt;&lt;div&gt;HEADER: PROCESS_ID = ?&lt;br&gt;&lt;/div&gt;" style="text;html=1;whiteSpace=wrap;overflow=hidden;rounded=0;strokeColor=default;" vertex="1" parent="ZKnrM1Vrkn3Mo8lUjv3E-75">
          <mxGeometry x="86" y="290" width="372" height="182.5" as="geometry" />
        </mxCell>
        <mxCell id="ZKnrM1Vrkn3Mo8lUjv3E-77" value="&lt;div&gt;req body json&lt;/div&gt;&lt;div&gt;&lt;br&gt;&lt;/div&gt;&lt;div&gt;{&lt;/div&gt;&lt;div&gt;&lt;span style=&quot;white-space: pre;&quot;&gt;&#x9;&lt;/span&gt;&quot;document&quot;: &quot;42223485898&quot;,&lt;/div&gt;&lt;div&gt;&lt;span style=&quot;white-space: pre;&quot;&gt;&#x9;&lt;/span&gt;&quot;taxPayment&quot;: [&lt;/div&gt;&lt;div&gt;&lt;span style=&quot;white-space: pre;&quot;&gt;&#x9;&lt;/span&gt;&lt;span style=&quot;white-space: pre;&quot;&gt;&#x9;&lt;/span&gt;{&lt;span style=&quot;white-space: pre;&quot;&gt;&lt;br&gt;&lt;/span&gt;&lt;/div&gt;&lt;div&gt;&lt;span style=&quot;white-space: pre;&quot;&gt;&lt;span style=&quot;white-space: pre;&quot;&gt;&#x9;&lt;/span&gt;&lt;span style=&quot;white-space: pre;&quot;&gt;&#x9;&lt;/span&gt;&lt;span style=&quot;white-space: pre;&quot;&gt;&#x9;&lt;/span&gt;&quot;type&quot;: &quot;IPVA&quot;,&lt;/span&gt;&lt;/div&gt;&lt;div&gt;&lt;span style=&quot;white-space: pre;&quot;&gt;&lt;span style=&quot;white-space: pre;&quot;&gt;&#x9;&lt;/span&gt;&lt;span style=&quot;white-space: pre;&quot;&gt;&#x9;&lt;/span&gt;&lt;span style=&quot;white-space: pre;&quot;&gt;&#x9;&lt;/span&gt;&quot;amount&quot;: 123123.122&#x9;&lt;/span&gt;&lt;/div&gt;&lt;div&gt;&lt;span style=&quot;white-space: pre;&quot;&gt;&#x9;&lt;/span&gt;&lt;span style=&quot;white-space: pre;&quot;&gt;&#x9;&lt;/span&gt;},&lt;/div&gt;&lt;div&gt;&lt;span style=&quot;white-space: pre;&quot;&gt;&#x9;&lt;/span&gt;&lt;span style=&quot;white-space: pre;&quot;&gt;&#x9;&lt;/span&gt;...&lt;br&gt;&lt;/div&gt;&lt;div&gt;&lt;span style=&quot;white-space: pre;&quot;&gt;&#x9;&lt;/span&gt;]&lt;br&gt;&lt;/div&gt;&lt;div&gt;}&lt;br&gt;&lt;/div&gt;" style="text;html=1;whiteSpace=wrap;overflow=hidden;rounded=0;strokeColor=default;" vertex="1" parent="ZKnrM1Vrkn3Mo8lUjv3E-75">
          <mxGeometry x="86" y="97" width="372" height="182.5" as="geometry" />
        </mxCell>
        <mxCell id="ZKnrM1Vrkn3Mo8lUjv3E-78" value="URL = api/prodesp/tax/payment&lt;br&gt;HTTP VERBO POST" style="text;html=1;align=center;verticalAlign=middle;whiteSpace=wrap;rounded=0;" vertex="1" parent="ZKnrM1Vrkn3Mo8lUjv3E-75">
          <mxGeometry x="11" y="37" width="533" height="45" as="geometry" />
        </mxCell>
        <mxCell id="ZKnrM1Vrkn3Mo8lUjv3E-80" value="funcionalidade 2 - Pagamento de tributo" style="swimlane;whiteSpace=wrap;html=1;" vertex="1" parent="1">
          <mxGeometry x="1739" y="342" width="615" height="490" as="geometry" />
        </mxCell>
        <mxCell id="ZKnrM1Vrkn3Mo8lUjv3E-81" value="response body json 200&lt;br&gt;&lt;div&gt;&lt;br&gt;&lt;/div&gt;&lt;div&gt;{&lt;/div&gt;&lt;div&gt;&lt;span style=&quot;white-space: pre;&quot;&gt;&#x9;&lt;/span&gt;&quot;status&quot;: &quot;PROCESSING&quot;,&lt;/div&gt;&lt;div&gt;&lt;span style=&quot;white-space: pre;&quot;&gt;&#x9;&lt;/span&gt;&quot;message&quot;: &quot;.....&quot;&lt;br&gt;&lt;/div&gt;&lt;div&gt;}&lt;br&gt;&lt;/div&gt;" style="text;html=1;whiteSpace=wrap;overflow=hidden;rounded=0;strokeColor=default;" vertex="1" parent="ZKnrM1Vrkn3Mo8lUjv3E-80">
          <mxGeometry x="91.5" y="133.5" width="372" height="182.5" as="geometry" />
        </mxCell>
        <mxCell id="ZKnrM1Vrkn3Mo8lUjv3E-83" value="URL = api/prodesp/tax/payment?paymentId=?&lt;br&gt;HTTP VERB GET" style="text;html=1;align=center;verticalAlign=middle;whiteSpace=wrap;rounded=0;" vertex="1" parent="ZKnrM1Vrkn3Mo8lUjv3E-80">
          <mxGeometry x="11" y="37" width="533" height="45" as="geometry" />
        </mxCell>
        <mxCell id="ZKnrM1Vrkn3Mo8lUjv3E-84" value="&lt;div&gt;Possiveis status:&lt;/div&gt;&lt;div&gt;PROCESSING &lt;br&gt;&lt;/div&gt;&lt;div&gt;SUCCESS&lt;br&gt;&lt;/div&gt;&lt;div&gt;ERROR &lt;/div&gt;" style="text;html=1;align=center;verticalAlign=middle;whiteSpace=wrap;rounded=0;" vertex="1" parent="ZKnrM1Vrkn3Mo8lUjv3E-80">
          <mxGeometry x="473" y="149" width="133" height="76" as="geometry" />
        </mxCell>
        <mxCell id="ZKnrM1Vrkn3Mo8lUjv3E-85" value="funcionalidade 3 - gerar relatorio de tributos" style="swimlane;whiteSpace=wrap;html=1;" vertex="1" parent="1">
          <mxGeometry x="1061" y="872" width="611" height="490" as="geometry" />
        </mxCell>
        <mxCell id="ZKnrM1Vrkn3Mo8lUjv3E-86" value="response code 201&lt;br&gt;&lt;div&gt;&lt;br&gt;&lt;/div&gt;&lt;div&gt;HEADER: REPORT_PROCESS_ID = ?&lt;/div&gt;" style="text;html=1;whiteSpace=wrap;overflow=hidden;rounded=0;strokeColor=default;" vertex="1" parent="ZKnrM1Vrkn3Mo8lUjv3E-85">
          <mxGeometry x="86" y="283" width="372" height="182.5" as="geometry" />
        </mxCell>
        <mxCell id="ZKnrM1Vrkn3Mo8lUjv3E-87" value="&lt;div&gt;req body json&lt;/div&gt;&lt;div&gt;&lt;br&gt;&lt;/div&gt;&lt;div&gt;{&lt;/div&gt;&lt;div&gt;&lt;span style=&quot;white-space: pre;&quot;&gt;&#x9;&lt;/span&gt;&quot;document&quot;: &quot;42223485898&quot;&lt;/div&gt;&lt;div&gt;}&lt;br&gt;&lt;/div&gt;" style="text;html=1;whiteSpace=wrap;overflow=hidden;rounded=0;strokeColor=default;" vertex="1" parent="ZKnrM1Vrkn3Mo8lUjv3E-85">
          <mxGeometry x="86" y="82" width="372" height="182.5" as="geometry" />
        </mxCell>
        <mxCell id="ZKnrM1Vrkn3Mo8lUjv3E-88" value="&lt;div&gt;URL = api/prodesp/tax/report&lt;/div&gt;&lt;div&gt;HTTP VERB POST&lt;br&gt;&lt;/div&gt;" style="text;html=1;align=center;verticalAlign=middle;whiteSpace=wrap;rounded=0;" vertex="1" parent="ZKnrM1Vrkn3Mo8lUjv3E-85">
          <mxGeometry x="15" y="31" width="533" height="45" as="geometry" />
        </mxCell>
        <mxCell id="ZKnrM1Vrkn3Mo8lUjv3E-89" value="funcionalidade 3 - gerar relatorio de tributos" style="swimlane;whiteSpace=wrap;html=1;" vertex="1" parent="1">
          <mxGeometry x="1739" y="874" width="611" height="490" as="geometry" />
        </mxCell>
        <mxCell id="ZKnrM1Vrkn3Mo8lUjv3E-90" value="response body json 200&lt;br&gt;&lt;div&gt;&lt;br&gt;&lt;/div&gt;&lt;div&gt;report blob OR &lt;br&gt;{&lt;br&gt;&lt;span style=&quot;white-space: pre;&quot;&gt;&#x9;&lt;/span&gt;&quot;status&quot;: &quot;PENDING&quot;&lt;br&gt;}&lt;br&gt;&lt;/div&gt;" style="text;html=1;whiteSpace=wrap;overflow=hidden;rounded=0;strokeColor=default;" vertex="1" parent="ZKnrM1Vrkn3Mo8lUjv3E-89">
          <mxGeometry x="113" y="130" width="372" height="182.5" as="geometry" />
        </mxCell>
        <mxCell id="ZKnrM1Vrkn3Mo8lUjv3E-92" value="&lt;div&gt;URL = api/prodesp/tax/report?reportId=?&lt;/div&gt;&lt;div&gt;HTTP VERB GET&lt;br&gt;&lt;/div&gt;" style="text;html=1;align=center;verticalAlign=middle;whiteSpace=wrap;rounded=0;" vertex="1" parent="ZKnrM1Vrkn3Mo8lUjv3E-89">
          <mxGeometry x="15" y="31" width="533" height="45" as="geometry" />
        </mxCell>
      </root>
    </mxGraphModel>
  </diagram>
</mxfile>
